HIERARCHY
ROOT Hips
{
	OFFSET -0.001795 -0.223333 0.028219
	CHANNELS 6 Xposition Yposition Zposition Zrotation Yrotation Xrotation 
	JOINT LeftUpLeg
	{
		OFFSET 0.069520 -0.091406 -0.006815
		CHANNELS 3 Zrotation Yrotation Xrotation
		JOINT LeftLeg
		{
			OFFSET 0.034277 -0.375199 -0.004496
			CHANNELS 3 Zrotation Yrotation Xrotation
			JOINT LeftFoot
			{
				OFFSET -0.013596 -0.397961 -0.043693
				CHANNELS 3 Zrotation Yrotation Xrotation
				JOINT LeftToe
				{
					OFFSET 0.026358 -0.055791 0.119288
					CHANNELS 3 Zrotation Yrotation Xrotation
					End Site
					{
						OFFSET 0.000000 0.000000 0.000000
					}
				}
			}
		}
	}
	JOINT RightUpLeg
	{
		OFFSET -0.067670 -0.090522 -0.004320
		CHANNELS 3 Zrotation Yrotation Xrotation
		JOINT RightLeg
		{
			OFFSET -0.038290 -0.382569 -0.008850
			CHANNELS 3 Zrotation Yrotation Xrotation
			JOINT RightFoot
			{
				OFFSET 0.015774 -0.398415 -0.042312
				CHANNELS 3 Zrotation Yrotation Xrotation
				JOINT RightToe
				{
					OFFSET -0.025372 -0.048144 0.123348
					CHANNELS 3 Zrotation Yrotation Xrotation
					End Site
					{
						OFFSET 0.000000 0.000000 0.000000
					}
				}
			}
		}
	}
	JOINT Spine
	{
		OFFSET -0.002533 0.108963 -0.026696
		CHANNELS 3 Zrotation Yrotation Xrotation
		JOINT Spine1
		{
			OFFSET 0.005487 0.135180 0.001092
			CHANNELS 3 Zrotation Yrotation Xrotation
			JOINT Spine2
			{
				OFFSET 0.001457 0.052922 0.025425
				CHANNELS 3 Zrotation Yrotation Xrotation
				JOINT Neck
				{
					OFFSET -0.002778 0.213870 -0.042857
					CHANNELS 3 Zrotation Yrotation Xrotation
					JOINT Head
					{
						OFFSET 0.005152 0.064970 0.051349
						CHANNELS 3 Zrotation Yrotation Xrotation
						End Site
						{
							OFFSET 0.000000 0.000000 0.000000
						}
					}
				}
				JOINT LeftShoulder
				{
					OFFSET 0.078845 0.121749 -0.034090
					CHANNELS 3 Zrotation Yrotation Xrotation
					JOINT LeftArm
					{
						OFFSET 0.090977 0.030469 -0.008868
						CHANNELS 3 Zrotation Yrotation Xrotation
						JOINT LeftForeArm
						{
							OFFSET 0.259612 -0.012772 -0.027456
							CHANNELS 3 Zrotation Yrotation Xrotation
							JOINT LeftHand
							{
								OFFSET 0.249234 0.008986 -0.001171
								CHANNELS 3 Zrotation Yrotation Xrotation
								End Site
								{
									OFFSET 0.000000 0.000000 0.000000
								}
							}
						}
					}
				}
				JOINT RightShoulder
				{
					OFFSET -0.081759 0.118833 -0.038615
					CHANNELS 3 Zrotation Yrotation Xrotation
					JOINT RightArm
					{
						OFFSET -0.096012 0.032551 -0.009143
						CHANNELS 3 Zrotation Yrotation Xrotation
						JOINT RightForeArm
						{
							OFFSET -0.253742 -0.013329 -0.021401
							CHANNELS 3 Zrotation Yrotation Xrotation
							JOINT RightHand
							{
								OFFSET -0.255298 0.007772 -0.005559
								CHANNELS 3 Zrotation Yrotation Xrotation
								End Site
								{
									OFFSET 0.000000 0.000000 0.000000
								}
							}
						}
					}
				}
			}
		}
	}
}
MOTION
Frames: 5
Frame Time: 0.050000
0.000000 0.935300 0.000000 -1.084981 18.011874 18.561851 3.474197 -1.484531 -16.003462 -0.781753 -0.306147 7.739801 10.121288 20.440521 3.483860 0.000000 0.000000 0.000000 0.316334 1.668897 -32.383534 0.592622 -0.011180 11.126610 3.575937 6.668016 5.837100 0.000000 0.000000 0.000000 6.437837 -3.323433 20.334053 4.695236 -2.405862 1.181225 -7.157238 -4.538396 6.813689 12.583432 -3.210380 -28.502647 0.000000 0.000000 0.000000 -15.018163 -45.200437 22.287900 -17.130752 -45.009963 2.416490 28.310809 -16.154172 -3.202229 0.000000 0.000000 0.000000 14.504333 34.603345 18.849245 22.993520 46.669219 4.820205 -32.436659 26.713025 -5.603492 0.000000 0.000000 0.000000 
0.000945 0.935416 -0.000777 -2.042363 16.868401 19.553687 4.219580 -1.700615 -18.717370 -0.901623 -0.406359 9.950527 11.102096 22.441655 4.240852 0.000000 0.000000 0.000000 1.191655 2.035175 -33.802113 1.278653 -0.126417 10.498088 3.922871 6.979826 6.767659 0.000000 0.000000 0.000000 5.935066 -3.112595 19.939589 4.257138 -2.280410 1.961750 -6.576931 -4.146248 7.025604 15.514835 -4.647363 -28.421284 0.000000 0.000000 0.000000 -12.371085 -43.264485 20.329228 -17.906446 -47.035946 2.827987 27.823966 -13.709450 -2.610152 0.000000 0.000000 0.000000 14.971907 33.884997 18.643118 21.544309 47.952227 4.374628 -32.618228 28.097228 -5.907187 0.000000 0.000000 0.000000 
0.001747 0.934767 -0.002155 -2.841842 16.035539 19.656103 5.214709 -1.647813 -19.100850 -1.770875 -0.270221 10.241165 11.978205 24.031780 5.646329 0.000000 0.000000 0.000000 2.356153 2.470207 -35.457967 -0.049780 0.194603 12.287095 4.611955 8.052859 7.466242 0.000000 0.000000 0.000000 6.440697 -3.306221 20.400101 3.499433 -1.914928 2.069490 -6.325778 -3.540538 6.534987 14.736961 -4.750859 -26.087217 0.000000 0.000000 0.000000 -13.767679 -43.972829 21.279403 -14.892964 -46.612466 1.748985 24.125211 -12.084263 -1.886881 0.000000 0.000000 0.000000 15.030521 33.048798 18.178598 17.545262 47.780046 2.878899 -32.100966 29.906917 -6.265930 0.000000 0.000000 0.000000 
0.002251 0.935526 -0.004050 -3.797665 14.442209 19.797823 5.420062 -1.678917 -20.214794 -1.330590 -0.417485 12.141101 13.896929 27.144708 6.384686 0.000000 0.000000 0.000000 3.586132 3.023411 -36.397822 -0.128156 0.258100 13.096356 5.998974 10.595390 8.025539 0.000000 0.000000 0.000000 6.105865 -3.284005 21.238204 2.895916 -1.634738 2.372151 -5.925376 -3.444958 6.218859 15.406490 -4.889441 -27.213880 0.000000 0.000000 0.000000 -12.409750 -43.253760 20.581271 -14.757450 -47.366634 1.800305 23.155204 -9.754001 -1.401978 0.000000 0.000000 0.000000 13.066589 33.982116 17.824946 15.653790 49.628390 2.487437 -33.392038 28.513909 -6.257745 0.000000 0.000000 0.000000 
0.002523 0.935363 -0.006545 -4.054988 13.874517 19.959367 6.121218 -1.652534 -20.828562 -2.572614 -0.222126 13.096160 14.257548 27.766895 7.065334 0.000000 0.000000 0.000000 3.676415 3.186476 -37.826704 0.040777 0.240178 14.609680 5.972845 9.821154 9.242399 0.000000 0.000000 0.000000 5.619294 -3.246328 22.032564 3.385691 -1.841897 2.240625 -6.535170 -3.427829 5.789362 16.443751 -5.678590 -25.886960 0.000000 0.000000 0.000000 -13.131695 -43.884006 21.272989 -14.240732 -46.221873 1.566447 21.968119 -8.643403 -1.137036 0.000000 0.000000 0.000000 14.200211 34.334897 18.392483 12.741377 49.680770 1.331918 -34.518533 28.464895 -6.502718 0.000000 0.000000 0.000000 
